<svg xmlns="http://www.w3.org/2000/svg" version="1.1" xmlns:xlink="http://www.w3.org/1999/xlink" width="2000" height="1500" viewBox="0 0 2000 1500"><svg xml:space="preserve" width="1500" height="1125" data-version="2" data-id="lg_ZyB4KUsR9XffRJigW8" viewBox="0 0 581 195" x="250" y="187.5"><rect width="100%" height="100%" fill="transparent"></rect><path fill="#1f09ff" d="M152.865 191.929h-12.43v-71.35h-21.06v-10.97h54.77v10.97h-21.28z"></path><rect width="54.77" height="82.32" x="-27.39" y="-41.16" fill="none" rx="0" ry="0" transform="translate(147.26 151.27)"></rect><path fill="#1f09ff" d="M227.345 109.159h.67l22.51 53.42 19.72-52.97h13.32l-32.03 82.32h-1.57l-22.4-53.31-22.28 53.2h-1.57l-32.03-82.21h13.32l19.72 52.97z"></path><rect width="111.88" height="82.77" x="-55.94" y="-41.38" fill="none" rx="0" ry="0" transform="translate(228.13 151.04)"></rect><path fill="#1f09ff" d="m275.955 191.929 39.42-82.43h1.23l39.65 82.43h-14.45l-7.05-16.13h-37.75l-7.05 16.13zm40.21-58.58h-.23l-4.93 11.2-8.96 19.94h27.78l-8.85-19.83z"></path><rect width="80.3" height="82.43" x="-40.15" y="-41.22" fill="none" rx="0" ry="0" transform="translate(316.6 151.21)"></rect><path fill="#1f09ff" d="M386.385 191.929h-12.43v-71.35h-21.06v-10.97h54.77v10.97h-21.28z"></path><rect width="54.77" height="82.32" x="-27.39" y="-41.16" fill="none" rx="0" ry="0" transform="translate(380.78 151.27)"></rect><path fill="#1f09ff" d="M442.945 191.929h-12.43v-71.35h-21.06v-10.97h54.77v10.97h-21.28z"></path><rect width="54.77" height="82.32" x="-27.39" y="-41.16" fill="none" rx="0" ry="0" transform="translate(437.34 151.27)"></rect><path fill="#1f09ff" d="M511.045 191.929h-39.76v-82.32h36.06v10.97h-23.63v22.74h19.04v11.2h-19.04v26.32h27.33z"></path><rect width="39.76" height="82.32" x="-19.88" y="-41.16" fill="none" rx="0" ry="0" transform="translate(491.67 151.27)"></rect><path fill="#1f09ff" d="M530.975 191.929h-12.21v-82.32h18.71q6.27 0 12.15 1.23 5.88 1.23 10.47 4.14 4.59 2.92 7.28 7.73 2.69 4.82 2.69 11.87 0 8.18-3.81 14.23-3.81 6.05-11.53 9.29l19.6 33.83h-14.45l-16.58-31.14q-1.9.11-4.65.17-2.74.06-4.53.06h-3.14zm0-71.91v30.8h7.95q6.16 0 9.92-1.56 3.75-1.57 5.76-3.98 2.02-2.41 2.75-5.26.73-2.86.73-5.32 0-5.49-2.52-8.68-2.52-3.2-6.95-4.6-4.42-1.4-10.13-1.4z"></path><rect width="55.56" height="82.32" x="-27.78" y="-41.16" fill="none" rx="0" ry="0" transform="translate(547.04 151.27)"></rect><path stroke="#1f09ff" stroke-width="5" d="M10.798 109.513H81.1m20.7-29.933V7.192m-18.188 82.66L33.086 39.326m55.995 86.071-50.526 50.526M170.956 36.351l-51.852 51.852" vector-effect="non-scaling-stroke"></path></svg></svg>