<?xml version="1.0" encoding="UTF-8" standalone="no" ?>
<!DOCTYPE svg PUBLIC "-//W3C//DTD SVG 1.1//EN" "http://www.w3.org/Graphics/SVG/1.1/DTD/svg11.dtd">
<svg xmlns="http://www.w3.org/2000/svg" xmlns:xlink="http://www.w3.org/1999/xlink" version="1.1" width="900" height="350" viewBox="0 0 900 350" xml:space="preserve">
<desc>Created with Fabric.js 5.2.4</desc>
<defs>
</defs>
<rect x="0" y="0" width="100%" height="100%" fill="transparent"></rect>
<g transform="matrix(1 0 0 1 450 175)" id="14b071d5-8423-4e8b-9784-e7533769203b"  >
<rect style="stroke: none; stroke-width: 1; stroke-dasharray: none; stroke-linecap: butt; stroke-dashoffset: 0; stroke-linejoin: miter; stroke-miterlimit: 4; fill: rgb(255,255,255); fill-rule: nonzero; opacity: 1; visibility: hidden;" vector-effect="non-scaling-stroke"  x="-450" y="-175" rx="0" ry="0" width="900" height="350" />
</g>
<g transform="matrix(Infinity NaN NaN Infinity 0 0)" id="e10f32bf-ccbf-4258-ab3f-ecd2f7eb8a75"  >
</g>
<g transform="matrix(0 0 0 0 1870.2 674.75)"  >
<g style=""   >
</g>
</g>
<g transform="matrix(0.59 0 0 0.59 450 -2.5)"  >
<g style="" vector-effect="non-scaling-stroke"   >
		<g transform="matrix(1 0 0 1 0 -25.66)" id="background"  >
</g>
		<g transform="matrix(2.58 0 0 2.58 24.44 646.48)"  >
<rect style="stroke: none; stroke-width: 1; stroke-dasharray: none; stroke-linecap: butt; stroke-dashoffset: 0; stroke-linejoin: miter; stroke-miterlimit: 4; fill: rgb(255,255,255); fill-opacity: 0; fill-rule: nonzero; opacity: 1;" vector-effect="non-scaling-stroke"  x="-50" y="-50" rx="0" ry="0" width="100" height="100" />
</g>
		<g transform="matrix(2.58 0 0 2.58 -371.15 422.58)"  >
<path style="stroke: none; stroke-width: 1; stroke-dasharray: none; stroke-linecap: butt; stroke-dashoffset: 0; stroke-linejoin: miter; stroke-miterlimit: 4; fill: rgb(31,9,255); fill-rule: nonzero; opacity: 1;" vector-effect="non-scaling-stroke"  transform=" translate(-146.76, -150.77)" d="M 152.865 191.929 L 140.435 191.929 L 140.435 120.57900000000001 L 119.375 120.57900000000001 L 119.375 109.60900000000001 L 174.145 109.60900000000001 L 174.145 120.57900000000001 L 152.865 120.57900000000001 z" stroke-linecap="round" />
</g>
		<g transform="matrix(2.58 0 0 2.58 -369.87 423.87)"  >
<rect style="stroke: none; stroke-width: 1; stroke-dasharray: none; stroke-linecap: butt; stroke-dashoffset: 0; stroke-linejoin: miter; stroke-miterlimit: 4; fill: none; fill-rule: nonzero; opacity: 1;" vector-effect="non-scaling-stroke"  x="-27.385" y="-41.16" rx="0" ry="0" width="54.77" height="82.32" />
</g>
		<g transform="matrix(2.58 0 0 2.58 -162.42 421.99)"  >
<path style="stroke: none; stroke-width: 1; stroke-dasharray: none; stroke-linecap: butt; stroke-dashoffset: 0; stroke-linejoin: miter; stroke-miterlimit: 4; fill: rgb(31,9,255); fill-rule: nonzero; opacity: 1;" vector-effect="non-scaling-stroke"  transform=" translate(-227.63, -150.54)" d="M 227.345 109.159 L 228.015 109.159 L 250.52499999999998 162.579 L 270.245 109.60900000000001 L 283.565 109.60900000000001 L 251.535 191.929 L 249.965 191.929 L 227.565 138.619 L 205.285 191.81900000000002 L 203.715 191.81900000000002 L 171.685 109.60900000000002 L 185.005 109.60900000000002 L 204.725 162.579 z" stroke-linecap="round" />
</g>
		<g transform="matrix(2.58 0 0 2.58 -161.12 423.29)"  >
<rect style="stroke: none; stroke-width: 1; stroke-dasharray: none; stroke-linecap: butt; stroke-dashoffset: 0; stroke-linejoin: miter; stroke-miterlimit: 4; fill: none; fill-rule: nonzero; opacity: 1;" vector-effect="non-scaling-stroke"  x="-55.94" y="-41.385" rx="0" ry="0" width="111.88" height="82.77" />
</g>
		<g transform="matrix(2.58 0 0 2.58 66.04 422.43)"  >
<path style="stroke: none; stroke-width: 1; stroke-dasharray: none; stroke-linecap: butt; stroke-dashoffset: 0; stroke-linejoin: miter; stroke-miterlimit: 4; fill: rgb(31,9,255); fill-rule: nonzero; opacity: 1;" vector-effect="non-scaling-stroke"  transform=" translate(-316.11, -150.71)" d="M 275.955 191.929 L 315.375 109.499 L 316.605 109.499 L 356.255 191.929 L 341.805 191.929 L 334.755 175.799 L 297.005 175.799 L 289.955 191.929 z M 316.16499999999996 133.349 L 315.93499999999995 133.349 L 311.00499999999994 144.54899999999998 L 302.04499999999996 164.48899999999998 L 329.82499999999993 164.48899999999998 L 320.9749999999999 144.659 z" stroke-linecap="round" />
</g>
		<g transform="matrix(2.58 0 0 2.58 67.32 423.7)"  >
<rect style="stroke: none; stroke-width: 1; stroke-dasharray: none; stroke-linecap: butt; stroke-dashoffset: 0; stroke-linejoin: miter; stroke-miterlimit: 4; fill: none; fill-rule: nonzero; opacity: 1;" vector-effect="non-scaling-stroke"  x="-40.15" y="-41.215" rx="0" ry="0" width="80.3" height="82.43" />
</g>
		<g transform="matrix(2.58 0 0 2.58 231.74 422.58)"  >
<path style="stroke: none; stroke-width: 1; stroke-dasharray: none; stroke-linecap: butt; stroke-dashoffset: 0; stroke-linejoin: miter; stroke-miterlimit: 4; fill: rgb(31,9,255); fill-rule: nonzero; opacity: 1;" vector-effect="non-scaling-stroke"  transform=" translate(-380.28, -150.77)" d="M 386.385 191.929 L 373.955 191.929 L 373.955 120.57900000000001 L 352.895 120.57900000000001 L 352.895 109.60900000000001 L 407.66499999999996 109.60900000000001 L 407.66499999999996 120.57900000000001 L 386.385 120.57900000000001 z" stroke-linecap="round" />
</g>
		<g transform="matrix(2.58 0 0 2.58 233.02 423.87)"  >
<rect style="stroke: none; stroke-width: 1; stroke-dasharray: none; stroke-linecap: butt; stroke-dashoffset: 0; stroke-linejoin: miter; stroke-miterlimit: 4; fill: none; fill-rule: nonzero; opacity: 1;" vector-effect="non-scaling-stroke"  x="-27.385" y="-41.16" rx="0" ry="0" width="54.77" height="82.32" />
</g>
		<g transform="matrix(2.58 0 0 2.58 377.76 422.58)"  >
<path style="stroke: none; stroke-width: 1; stroke-dasharray: none; stroke-linecap: butt; stroke-dashoffset: 0; stroke-linejoin: miter; stroke-miterlimit: 4; fill: rgb(31,9,255); fill-rule: nonzero; opacity: 1;" vector-effect="non-scaling-stroke"  transform=" translate(-436.84, -150.77)" d="M 442.945 191.929 L 430.515 191.929 L 430.515 120.57900000000001 L 409.455 120.57900000000001 L 409.455 109.60900000000001 L 464.22499999999997 109.60900000000001 L 464.22499999999997 120.57900000000001 L 442.94499999999994 120.57900000000001 z" stroke-linecap="round" />
</g>
		<g transform="matrix(2.58 0 0 2.58 379.04 423.87)"  >
<rect style="stroke: none; stroke-width: 1; stroke-dasharray: none; stroke-linecap: butt; stroke-dashoffset: 0; stroke-linejoin: miter; stroke-miterlimit: 4; fill: none; fill-rule: nonzero; opacity: 1;" vector-effect="non-scaling-stroke"  x="-27.385" y="-41.16" rx="0" ry="0" width="54.77" height="82.32" />
</g>
		<g transform="matrix(2.58 0 0 2.58 518.03 422.58)"  >
<path style="stroke: none; stroke-width: 1; stroke-dasharray: none; stroke-linecap: butt; stroke-dashoffset: 0; stroke-linejoin: miter; stroke-miterlimit: 4; fill: rgb(31,9,255); fill-rule: nonzero; opacity: 1;" vector-effect="non-scaling-stroke"  transform=" translate(-491.17, -150.77)" d="M 511.045 191.929 L 471.285 191.929 L 471.285 109.60900000000001 L 507.345 109.60900000000001 L 507.345 120.57900000000001 L 483.71500000000003 120.57900000000001 L 483.71500000000003 143.31900000000002 L 502.75500000000005 143.31900000000002 L 502.75500000000005 154.519 L 483.71500000000003 154.519 L 483.71500000000003 180.839 L 511.045 180.839 z" stroke-linecap="round" />
</g>
		<g transform="matrix(2.58 0 0 2.58 519.34 423.87)"  >
<rect style="stroke: none; stroke-width: 1; stroke-dasharray: none; stroke-linecap: butt; stroke-dashoffset: 0; stroke-linejoin: miter; stroke-miterlimit: 4; fill: none; fill-rule: nonzero; opacity: 1;" vector-effect="non-scaling-stroke"  x="-19.88" y="-41.16" rx="0" ry="0" width="39.76" height="82.32" />
</g>
		<g transform="matrix(2.58 0 0 2.58 660.99 422.58)"  >
<path style="stroke: none; stroke-width: 1; stroke-dasharray: none; stroke-linecap: butt; stroke-dashoffset: 0; stroke-linejoin: miter; stroke-miterlimit: 4; fill: rgb(31,9,255); fill-rule: nonzero; opacity: 1;" vector-effect="non-scaling-stroke"  transform=" translate(-546.55, -150.77)" d="M 530.975 191.929 L 518.765 191.929 L 518.765 109.60900000000001 L 537.475 109.60900000000001 Q 543.745 109.60900000000001 549.625 110.83900000000001 Q 555.505 112.06900000000002 560.095 114.97900000000001 Q 564.6850000000001 117.89900000000002 567.375 122.70900000000002 Q 570.065 127.52900000000002 570.065 134.579 Q 570.065 142.75900000000001 566.2550000000001 148.809 Q 562.4450000000002 154.859 554.7250000000001 158.099 L 574.3250000000002 191.92899999999997 L 559.8750000000001 191.92899999999997 L 543.2950000000001 160.789 Q 541.3950000000001 160.899 538.6450000000001 160.95899999999997 Q 535.9050000000001 161.01899999999998 534.1150000000001 161.01899999999998 L 530.9750000000001 161.01899999999998 z M 530.975 120.019 L 530.975 150.81900000000002 L 538.9250000000001 150.81900000000002 Q 545.085 150.81900000000002 548.845 149.25900000000001 Q 552.595 147.68900000000002 554.605 145.27900000000002 Q 556.625 142.86900000000003 557.355 140.01900000000003 Q 558.085 137.15900000000002 558.085 134.69900000000004 Q 558.085 129.20900000000003 555.565 126.01900000000003 Q 553.0450000000001 122.81900000000003 548.615 121.41900000000004 Q 544.195 120.01900000000003 538.485 120.01900000000003 z" stroke-linecap="round" />
</g>
		<g transform="matrix(2.58 0 0 2.58 662.27 423.87)"  >
<rect style="stroke: none; stroke-width: 1; stroke-dasharray: none; stroke-linecap: butt; stroke-dashoffset: 0; stroke-linejoin: miter; stroke-miterlimit: 4; fill: none; fill-rule: nonzero; opacity: 1;" vector-effect="non-scaling-stroke"  x="-27.78" y="-41.16" rx="0" ry="0" width="55.56" height="82.32" />
</g>
		<g transform="matrix(2.58 0 0 2.58 -515.52 269.63)"  >
<path style="stroke: rgb(31,9,255); stroke-width: 5; stroke-dasharray: none; stroke-linecap: butt; stroke-dashoffset: 0; stroke-linejoin: miter; stroke-miterlimit: 4; fill: rgb(0,0,0); fill-rule: nonzero; opacity: 1;" vector-effect="non-scaling-stroke"  transform=" translate(-90.88, -91.56)" d="M 10.798 109.513 L 81.1 109.513 M 101.8 79.58000000000001 L 101.8 7.192 M 83.612 89.852 L 33.086 39.326 M 89.08099999999999 125.39699999999999 L 38.554999999999986 175.923 M 170.956 36.351 L 119.10399999999998 88.203" stroke-linecap="round" />
</g>
</g>
</g>
</svg>